<?xml version="1.0" encoding="utf-8"?>
<!-- Generator: Adobe Illustrator 25.0.0, SVG Export Plug-In . SVG Version: 6.00 Build 0)  -->
<svg version="1.1" id="_x2014_ÎÓÈ_1" xmlns="http://www.w3.org/2000/svg" xmlns:xlink="http://www.w3.org/1999/xlink" x="0px"
	 y="0px" viewBox="0 0 1200 1200" style="enable-background:new 0 0 1200 1200;" xml:space="preserve">
<style type="text/css">
	.st0{fill:#959595;}
	.st1{fill:#757575;}
</style>
<g>
	<rect x="1107" class="st0" width="38" height="1200"/>
	<rect x="957" class="st0" width="38" height="1200"/>
	<rect x="807" class="st0" width="38" height="1200"/>
	<rect x="657" class="st0" width="38" height="1200"/>
	<rect x="507" class="st0" width="38" height="1200"/>
	<rect x="357" class="st0" width="38" height="1200"/>
	<rect x="207" class="st0" width="38" height="1200"/>
	<rect x="57" class="st0" width="38" height="1200"/>
</g>
<g>
	<rect x="108" class="st1" width="6" height="1200"/>
	<rect x="36" class="st1" width="6" height="1200"/>
	<rect x="186" class="st1" width="6" height="1200"/>
	<rect x="258" class="st1" width="6" height="1200"/>
	<rect x="336" class="st1" width="6" height="1200"/>
	<rect x="408" class="st1" width="6" height="1200"/>
	<rect x="486" class="st1" width="6" height="1200"/>
	<rect x="558" class="st1" width="6" height="1200"/>
	<rect x="636" class="st1" width="6" height="1200"/>
	<rect x="708" class="st1" width="6" height="1200"/>
	<rect x="1158" class="st1" width="6" height="1200"/>
	<rect x="1086" class="st1" width="6" height="1200"/>
	<rect x="1008" class="st1" width="6" height="1200"/>
	<rect x="936" class="st1" width="6" height="1200"/>
	<rect x="858" class="st1" width="6" height="1200"/>
	<rect x="786" class="st1" width="6" height="1200"/>
</g>
</svg>
